<?xml version="1.0" encoding="UTF-8" standalone="no"?>
<svg width="98px" height="83px" viewBox="0 0 98 83" version="1.1" xmlns="http://www.w3.org/2000/svg" xmlns:xlink="http://www.w3.org/1999/xlink">
    <!-- Generator: Sketch 39.1 (31720) - http://www.bohemiancoding.com/sketch -->
    <title>desktop</title>
    <desc>Created with Sketch.</desc>
    <defs></defs>
    <g id="Page-1" stroke="none" stroke-width="1" fill="none" fill-rule="evenodd">
        <g id="noun_6034_cc" fill="#000000">
            <g id="Group">
                <path d="M0.047,57.597 L0.047,63.063 C0.047,64.637 1.323,65.913 2.896,65.913 L91.792,65.913 C93.365,65.913 94.64,64.638 94.64,63.063 L94.64,57.597 L0.047,57.597 L0.047,57.597 Z" id="Shape"></path>
                <path d="M91.793,0.17 L2.896,0.17 C1.323,0.17 0.047,1.446 0.047,3.019 L0.047,56.776 L94.64,56.776 L94.64,3.019 C94.641,1.446 93.366,0.17 91.793,0.17 L91.793,0.17 Z M90.707,53.311 L3.825,53.311 L3.825,3.808 L90.707,3.808 L90.707,53.311 L90.707,53.311 Z" id="Shape"></path>
                <path d="M60.269,74.279 C58.535,73.004 58.352,71.089 58.352,71.089 L57.702,66.935 L36.988,66.935 L36.336,71.089 C36.336,71.089 36.155,73.004 34.422,74.279 C32.69,75.555 31.323,76.649 32.69,76.832 C34.007,77.009 46.43,76.847 47.346,76.833 C48.263,76.847 60.684,77.009 62.001,76.832 C63.367,76.649 62,75.556 60.269,74.279 L60.269,74.279 Z" id="Shape"></path>
                <polygon id="Shape" points="73.279 81.061 20.101 81.061 22.95 77.505 70.43 77.505"></polygon>
                <rect id="Rectangle-path" x="20.101" y="81.061" width="53.179" height="0.77"></rect>
                <path d="M89.211,76.702 C89.211,76.702 85.313,76.659 82.451,77.497 C83.129,77.434 83.877,77.49 84.662,77.762 C85.439,78.033 86.195,78.472 86.993,78.935 C88.436,79.777 90.118,80.751 92.61,81.132 C96.329,81.083 97.919,80.724 97.951,80.055 C97.997,79.142 96.664,76.841 89.211,76.702 L89.211,76.702 Z M84.545,78.099 C82.758,77.479 81.134,78.078 80.224,78.568 C80.047,78.717 79.895,78.877 79.778,79.05 C79.778,79.05 80.33,80.819 87.646,81.061 C88.863,81.101 89.956,81.126 90.938,81.134 C89.24,80.65 87.954,79.906 86.813,79.244 C86.031,78.789 85.292,78.357 84.545,78.099 L84.545,78.099 Z" id="Shape"></path>
                <path d="M93.127,81.434 C93.126,81.434 93.126,81.435 93.125,81.435 C93.039,81.437 92.924,81.439 92.793,81.441 C92.732,81.441 92.673,81.443 92.61,81.444 C92.608,81.443 92.605,81.443 92.602,81.443 C92.087,81.446 91.401,81.444 90.923,81.443 C90.929,81.444 90.933,81.444 90.937,81.446 C90.78,81.444 90.616,81.443 90.454,81.441 C90.399,81.44 90.368,81.439 90.368,81.439 L90.366,81.439 C89.535,81.427 88.634,81.407 87.645,81.374 C84.902,81.282 83.108,80.976 81.94,80.63 L81.94,81.062 L90.774,81.832 C90.774,81.832 94.546,81.727 95.697,81.447 L95.697,81.284 C95.012,81.36 94.161,81.41 93.127,81.434 L93.127,81.434 Z" id="Shape"></path>
            </g>
        </g>
    </g>
</svg>