<?xml version="1.0" encoding="UTF-8" standalone="no"?>
<svg width="68px" height="100px" viewBox="0 0 68 100" version="1.1" xmlns="http://www.w3.org/2000/svg" xmlns:xlink="http://www.w3.org/1999/xlink">
    <!-- Generator: Sketch 39.1 (31720) - http://www.bohemiancoding.com/sketch -->
    <title>Slice 1</title>
    <desc>Created with Sketch.</desc>
    <defs></defs>
    <g id="Page-1" stroke="none" stroke-width="1" fill="none" fill-rule="evenodd">
        <g id="ipad-y">
            <g id="Page-1">
                <g id="ipad" fill="#444040">
                    <g id="Page-1">
                        <g id="noun_13059_cc">
                            <path d="M67.751,95.156 C67.751,97.831 65.582,100 62.907,100 L5.093,100 C2.418,100 0.249,97.831 0.249,95.156 L0.249,4.844 C0.249,2.169 2.418,0 5.093,0 L62.907,0 C65.582,0 67.751,2.169 67.751,4.844 L67.751,95.156 L67.751,95.156 L67.751,95.156 L67.751,95.156 Z M34,92.652 C32.611,92.652 31.485,93.778 31.485,95.167 C31.485,96.557 32.611,97.683 34,97.683 C35.388,97.683 36.515,96.557 36.515,95.167 C36.516,93.778 35.389,92.652 34,92.652 L34,92.652 L34,92.652 L34,92.652 Z M33.993,6.066 C34.346,6.066 34.633,5.779 34.633,5.426 C34.633,5.073 34.346,4.786 33.993,4.786 C33.639,4.786 33.353,5.073 33.353,5.426 C33.353,5.779 33.64,6.066 33.993,6.066 L33.993,6.066 L33.993,6.066 L33.993,6.066 Z" id="Shape"></path>
                        </g>
                    </g>
                </g>
                <polygon id="Shape-path" fill="#FDEA8C" points="4 10 4 90 64 90 64 10"></polygon>
            </g>
        </g>
    </g>
</svg>