<?xml version="1.0" encoding="UTF-8" standalone="no"?>
<svg width="46px" height="91px" viewBox="0 0 46 91" version="1.1" xmlns="http://www.w3.org/2000/svg" xmlns:xlink="http://www.w3.org/1999/xlink">
    <!-- Generator: Sketch 39.1 (31720) - http://www.bohemiancoding.com/sketch -->
    <title>iphone-y</title>
    <desc>Created with Sketch.</desc>
    <defs></defs>
    <g id="Page-1" stroke="none" stroke-width="1" fill="none" fill-rule="evenodd">
        <g id="iphone-y">
            <g id="Page-1">
                <g id="iphone" fill="#444040">
                    <g id="Page-1">
                        <g id="noun_104375_cc">
                            <path d="M40.521,90.061 L5.727,90.061 C3.013,90.061 0.813,87.861 0.813,85.147 L0.813,4.945 C0.813,2.231 3.013,0.031 5.727,0.031 L40.521,0.031 C43.235,0.031 45.435,2.231 45.435,4.945 L45.435,85.147 C45.435,87.861 43.235,90.061 40.521,90.061 L40.521,90.061 L40.521,90.061 L40.521,90.061 Z M23.124,88.783 C24.861,88.783 26.269,87.375 26.269,85.638 C26.269,83.901 24.861,82.493 23.124,82.493 C21.387,82.493 19.979,83.901 19.979,85.638 C19.979,87.375 21.387,88.783 23.124,88.783 L23.124,88.783 L23.124,88.783 L23.124,88.783 Z" id="Shape"></path>
                        </g>
                    </g>
                </g>
                <polygon id="Shape-path" fill="#FDEA8C" points="2.778 8.876 2.778 81.215 43.469 81.215 43.469 8.876"></polygon>
            </g>
        </g>
    </g>
</svg>