<svg xmlns="http://www.w3.org/2000/svg" xmlns:xlink="http://www.w3.org/1999/xlink" version="1.1" x="0px" y="0px" viewBox="-199 351 100 100" enable-background="new -199 351 100 100" xml:space="preserve"><path d="M-184.209,428.617c-2.884,0-5.368-2.055-5.909-4.885c-0.302-1.578,0.028-3.181,0.931-4.512  c0.903-1.33,2.271-2.229,3.851-2.532l14.355-2.752l6.24-7.868l3.135,2.486l-7.164,9.03l-15.813,3.031  c-0.531,0.102-0.99,0.404-1.293,0.851c-0.303,0.447-0.414,0.984-0.312,1.514c0.205,1.068,1.263,1.819,2.352,1.6l16.56-3.178  c0.473-0.092,0.902-0.352,1.206-0.73l7.098-8.952l3.135,2.484l-7.104,8.959c-0.9,1.126-2.169,1.893-3.576,2.166l-16.552,3.177  C-183.439,428.579-183.826,428.617-184.209,428.617z M-126.216,385.234c-5.96,0-10.809-4.849-10.809-10.809  c0-5.96,4.849-10.809,10.809-10.809c5.96,0,10.809,4.849,10.809,10.809C-115.407,380.385-120.256,385.234-126.216,385.234z   M-126.216,367.617c-3.754,0-6.809,3.054-6.809,6.809s3.055,6.809,6.809,6.809s6.809-3.054,6.809-6.809  S-122.462,367.617-126.216,367.617z M-149.787,441.617c-1.115,0-2.208-0.312-3.16-0.901c-2.816-1.745-3.697-5.46-1.961-8.28  l7.336-11.889l-14.39-7.346c-1.575-0.793-2.71-2.264-3.104-4.028c-0.408-1.831,0.031-3.796,1.177-5.255  c0.127-0.156,0.221-0.27,0.324-0.384l14.719-15.75c-1.145-1.235-2.729-2.955-3.732-4.049l-11.732,2.779  c-0.426,0.106-0.892,0.163-1.364,0.163c-2.733,0-5.087-1.862-5.723-4.528c-0.363-1.532-0.107-3.112,0.719-4.45  c0.826-1.337,2.123-2.272,3.651-2.632l15.115-3.584c0.569-0.13,1.045-0.188,1.515-0.188c1.536,0,2.898,0.633,4.166,1.934  c2.699,2.767,16.371,15.676,20.767,19.804l6.173-5.742c1.088-1.013,2.51-1.572,4.003-1.572c1.618,0,3.186,0.681,4.3,1.868  c1.077,1.157,1.636,2.657,1.578,4.228c-0.058,1.57-0.723,3.024-1.874,4.095l-10.07,9.384c-1.103,1.018-2.524,1.574-4.012,1.574  c-1.393,0-2.743-0.496-3.803-1.396l-7.319-6.205l-8.508,9.102l8.687,4.419c1.496,0.754,2.621,2.117,3.08,3.735  c0.463,1.61,0.222,3.36-0.663,4.796l-10.768,17.444C-145.766,440.551-147.682,441.617-149.787,441.617z M-151.201,379.298  l0.793,0.88c0.826,0.917,5.018,5.459,5.749,6.231l1.295,1.366l-17.255,18.466c-0.038,0.042-0.091,0.107-0.146,0.174  c-0.39,0.498-0.547,1.214-0.396,1.888c0.077,0.346,0.311,0.979,1.008,1.331l18.263,9.323l-9.612,15.577  c-0.582,0.945-0.285,2.194,0.662,2.781c0.933,0.577,2.212,0.262,2.778-0.655l10.764-17.44c0.295-0.479,0.376-1.062,0.223-1.599  c-0.159-0.559-0.528-1.006-1.042-1.265l-13.434-6.833l14.741-15.77l10.228,8.67c0.703,0.598,1.822,0.57,2.507-0.062l10.064-9.378  c0.37-0.345,0.584-0.811,0.603-1.314c0.019-0.502-0.16-0.982-0.503-1.35c-0.69-0.735-1.931-0.778-2.655-0.1l-7.539,7.013  c-1.361,1.287-2.576,0.143-3.552-0.773l-2.189-2.059c-1.824-1.719-4.291-4.046-6.86-6.479c-4.686-4.438-10.639-10.105-12.39-11.899  l-0.002-0.001c-0.704-0.724-1.091-0.724-1.299-0.724c-0.164,0-0.357,0.027-0.609,0.084l-15.1,3.581  c-0.491,0.116-0.904,0.415-1.169,0.842c-0.265,0.429-0.347,0.934-0.23,1.422c0.204,0.854,0.957,1.454,1.831,1.454  c0.148,0,0.286-0.016,0.42-0.049L-151.201,379.298z"></path></svg>