<?xml version="1.0" encoding="UTF-8" standalone="no"?>
<svg width="100px" height="85px" viewBox="0 0 100 85" version="1.1" xmlns="http://www.w3.org/2000/svg" xmlns:xlink="http://www.w3.org/1999/xlink">
    <!-- Generator: Sketch 39.1 (31720) - http://www.bohemiancoding.com/sketch -->
    <title>share-b</title>
    <desc>Created with Sketch.</desc>
    <defs></defs>
    <g id="Page-1" stroke="none" stroke-width="1" fill="none" fill-rule="evenodd">
        <g id="share-y" fill="#322E2E">
            <g id="Page-1">
                <g id="Group">
                    <path d="M69.728,84.841 L10.156,84.841 C4.557,84.841 0,80.052 0,74.161 L0,17.753 C0,11.865 4.557,7.075 10.156,7.075 L66.702,7.075 L41.22,17.877 L10.158,17.877 L10.384,74.159 L69.728,74.034 L69.501,66.43 L79.89,58.388 L79.89,74.16 C79.89,80.052 75.333,84.841 69.728,84.841 L69.728,84.841 L69.728,84.841 Z" id="Shape"></path>
                    <path d="M69.345,57.824 L69.271,40.775 C45.013,40.618 26.887,54.877 26.887,54.877 C26.887,54.877 29.759,23.337 69.345,15.561 L69.345,0 L100,28.934 L85.094,42.959 L69.345,57.824 L69.345,57.824 L69.345,57.824 Z" id="Shape"></path>
                </g>
            </g>
        </g>
    </g>
</svg>